<svg width="26" height="24" viewBox="0 0 26 24" fill="none" xmlns="http://www.w3.org/2000/svg">
<rect x="10.706" y="10.6667" width="4.58823" height="2.66667" rx="1.33333" fill="white"/>
<rect y="21.3333" width="8.41177" height="2.66667" rx="1.33333" fill="white"/>
<rect y="17.7778" width="8.41177" height="2.66667" rx="1.33333" fill="white"/>
<rect y="14.2222" width="8.41177" height="2.66667" rx="1.33333" fill="white"/>
<rect y="10.6667" width="8.41177" height="2.66667" rx="1.33333" fill="white"/>
<rect x="17.5883" y="21.3333" width="8.41177" height="2.66667" rx="1.33333" fill="white"/>
<rect x="17.5883" y="17.7778" width="8.41177" height="2.66667" rx="1.33333" fill="white"/>
<rect x="17.5883" y="14.2222" width="8.41177" height="2.66667" rx="1.33333" fill="white"/>
<rect x="17.5883" y="10.6667" width="8.41177" height="2.66667" rx="1.33333" fill="white"/>
<rect y="7.11111" width="26" height="2.66667" rx="1.33333" fill="white"/>
<rect y="3.55556" width="11.4706" height="2.66667" rx="1.33333" fill="white"/>
<rect x="14.5294" y="3.55556" width="11.4706" height="2.66667" rx="1.33333" fill="white"/>
<rect width="8.41177" height="2.66667" rx="1.33333" fill="white"/>
<rect x="17.5883" width="8.41177" height="2.66667" rx="1.33333" fill="white"/>
</svg>
